<svg xmlns="http://www.w3.org/2000/svg" width="32" height="32" viewBox="0 0 32 32" version="1.1"><path d="" stroke="none" fill="#04a47c" fill-rule="evenodd"/><path d="M 12.313 0.786 C 7.446 3.880, 8.006 18.917, 13.085 21.544 C 20.227 25.237, 25.780 14.442, 21.937 4.335 C 20.380 0.239, 15.818 -1.443, 12.313 0.786 M 5 16.177 C 5 20.831, 7.965 25.219, 11.969 26.490 C 14.829 27.398, 14.493 28.809, 11.327 29.184 C 4.605 29.979, 7.958 32, 16 32 C 24.042 32, 27.395 29.979, 20.673 29.184 C 18.005 28.868, 16.834 27, 19.304 27 C 22.427 27, 27 20.534, 27 16.119 C 27 10.695, 24.781 10.980, 23.880 16.520 C 22.259 26.495, 9.741 26.495, 8.120 16.520 C 7.214 10.946, 5 10.703, 5 16.177" stroke="none" fill="#049c7c" fill-rule="evenodd"/></svg>