<svg xmlns="http://www.w3.org/2000/svg" width="32" height="32" viewBox="0 0 32 32" version="1.1"><path d="" stroke="none" fill="#04a47c" fill-rule="evenodd"/><path d="M 0.704 2.629 C 0.317 3.016, -0 8.208, -0 14.167 L 0 25 5.500 25 C 8.525 25, 11 25.450, 11 26 C 11 26.550, 9.650 27, 8 27 C 6 27, 5 27.500, 5 28.500 C 5 29.742, 6.889 30, 16 30 C 25.111 30, 27 29.742, 27 28.500 C 27 27.500, 26 27, 24 27 C 18.528 27, 20.896 25.105, 26.750 24.800 L 32.500 24.500 32.782 13.340 L 33.064 2.180 17.236 2.052 C 8.531 1.982, 1.092 2.242, 0.704 2.629 M 0.378 14 C 0.378 20.325, 0.541 22.912, 0.739 19.750 C 0.937 16.587, 0.937 11.412, 0.739 8.250 C 0.541 5.087, 0.378 7.675, 0.378 14 M 15.135 12.002 C 13.285 12.913, 11.328 14.450, 10.786 15.418 C 9.908 16.987, 10.040 17.049, 12.013 15.993 C 13.229 15.342, 15.238 15.003, 16.477 15.240 C 17.716 15.477, 19.461 15.136, 20.355 14.482 C 21.849 13.390, 21.840 13.173, 20.241 11.819 C 18.702 10.516, 18.109 10.537, 15.135 12.002" stroke="none" fill="#049c7c" fill-rule="evenodd"/></svg>